<?xml version="1.0" encoding="utf-8"?>
<!-- Generator: Adobe Illustrator 24.1.2, SVG Export Plug-In . SVG Version: 6.00 Build 0)  -->
<svg version="1.1" id="Layer_1" xmlns="http://www.w3.org/2000/svg" xmlns:xlink="http://www.w3.org/1999/xlink" x="0px" y="0px"
	 viewBox="0 0 792 1224" style="enable-background:new 0 0 792 1224;" xml:space="preserve">
<style type="text/css">
	.st0{fill:#FFFFFF;}
</style>
<g>
	<path d="M271,682c0-46.7,0-93.3,0-140c83.3,0,166.7,0,250,0c0,46.7,0,93.3,0,140C437.7,682,354.3,682,271,682z M396.4,587.4
		c-26.3,0-52.6,0.1-78.9-0.1c-4,0-5.6,1.1-5.5,5.3c0.2,13,0.2,26,0,39c-0.1,4,1.1,5.6,5.3,5.6c52.8-0.1,105.6-0.1,158.3,0
		c3.8,0,5.2-1.1,5.2-5.1c-0.2-12.6-0.1-25.3-0.1-38c0-6.6,0-6.7-6.4-6.7C448.3,587.4,422.3,587.4,396.4,587.4z M448.2,583.3
		c-4.9-13.8-27.3-33.2-56.5-31.2c-23.4,1.6-44.1,19.2-47.2,31.2C379.1,583.3,413.6,583.3,448.2,583.3z M344,641.3
		c8.5,20.3,34.4,33.3,60.2,30.6c18.4-1.9,41-17.6,43.7-30.6C413.4,641.3,378.9,641.3,344,641.3z M456.1,584.3c0.4-0.5,0.8-1,1.2-1.5
		c-8.1-22.7-37.1-40-64.5-38.6c-25.2,1.3-52.8,20.1-56.9,39.6c2-0.9,3.9-2.1,5-3.8c12.5-20,30.6-31.3,54.1-31.7
		c24.5-0.4,43.5,10.7,56.6,31.6C452.6,581.6,454.5,582.8,456.1,584.3z M457.1,641.7c-3.6-0.3-3.6-0.3-6.2,3.9
		c-13.8,22.9-41.4,35.1-67.5,29.4c-18.4-4-32.5-14.1-42.3-30.2c-1.4-2.3-2.5-4.9-6-3.2c8.4,23.2,35.8,39.3,65.1,38.4
		C424.3,679.4,451.3,661.2,457.1,641.7z"/>
	<path class="st0" d="M396.4,587.4c26,0,51.9,0,77.9,0c6.4,0,6.4,0,6.4,6.7c0,12.7-0.1,25.3,0.1,38c0.1,4-1.3,5.1-5.2,5.1
		c-52.8-0.1-105.6-0.1-158.3,0c-4.2,0-5.4-1.5-5.3-5.6c0.2-13,0.2-26,0-39c-0.1-4.2,1.5-5.4,5.5-5.3
		C343.8,587.4,370.1,587.4,396.4,587.4z"/>
	<path class="st0" d="M448.2,583.3c-34.6,0-69.1,0-103.6,0c3.1-12,23.7-29.5,47.2-31.2C420.9,550.1,443.3,569.5,448.2,583.3z
		 M416.6,578.8c0-0.1,0-0.1,0-0.2c-13.7,0-27.5,0-41.2,0c0,0.1,0,0.1,0,0.2C389.1,578.8,402.9,578.8,416.6,578.8z"/>
	<path class="st0" d="M344,641.3c34.9,0,69.4,0,103.9,0c-2.7,13-25.3,28.7-43.7,30.6C378.5,674.6,352.5,661.6,344,641.3z"/>
	<path class="st0" d="M456.1,584.3c-1.5-1.4-3.4-2.7-4.5-4.4c-13.1-20.9-32.1-32-56.6-31.6c-23.5,0.4-41.5,11.7-54.1,31.7
		c-1.1,1.7-3,2.9-5,3.8c4.1-19.5,31.7-38.3,56.9-39.6c27.4-1.4,56.4,15.9,64.5,38.6C456.9,583.3,456.5,583.8,456.1,584.3z"/>
	<path class="st0" d="M457.1,641.7c-5.7,19.4-32.8,37.7-56.8,38.4c-29.3,0.9-56.7-15.3-65.1-38.4c3.5-1.7,4.6,0.9,6,3.2
		c9.8,16.1,23.9,26.2,42.3,30.2c26.1,5.6,53.7-6.5,67.5-29.4C453.5,641.4,453.5,641.4,457.1,641.7z"/>
	<ellipse cx="396" cy="578.7" rx="29.2" ry="0.1"/>
</g>
</svg>
